# xmcd CD database file
#
# Track frame offsets:
#	150
#	5081
#	12902
#	32729
#	42499
#	53337
#	67555
#	80189
#	97977
#	109729
#	122511
#	136966
#	147710
#	159268
#	173279
#	186210
#
# Disc length: 2669 seconds
#
# Revision: 0
# Processed by: cddbd v1.5.2PL0 Copyright (c) Steve Scherf et al.
# Submitted via: CDex 1.51
#
DISCID=c60a6b10
DTITLE=Hot Jazz Stompers - Singin' and Swingin'
DYEAR=2007
DGENRE=Jazz
TTITLE0=Muppet Show
TTITLE1=Ain't the Sweet
TTITLE2=Tuxedo Junction
TTITLE3=Tequila
TTITLE4=It don't mean a thing
TTITLE5=Dream a little dream
TTITLE6=Caravan
TTITLE7=Puttin' on the Ritz
TTITLE8=Mr. Sandman
TTITLE9=Pink Panther
TTITLE10=Stompin' at the Savoy
TTITLE11=Veronika, Der Lenz ist da
TTITLE12=Shake Rattle and Roll
TTITLE13=Wild Cat Blues
TTITLE14=Flat Foot Floogie
TTITLE15=What a wonderful World
EXTD=YEAR: 2007
EXTT0=
EXTT1=
EXTT2=
EXTT3=
EXTT4=
EXTT5=
EXTT6=
EXTT7=
EXTT8=
EXTT9=
EXTT10=
EXTT11=
EXTT12=
EXTT13=
EXTT14=
EXTT15=
PLAYORDER=
